<?xml version="1.0" encoding="utf-8"?>
<!-- Generator: Adobe Illustrator 24.0.2, SVG Export Plug-In . SVG Version: 6.00 Build 0)  -->
<svg version="1.1" id="Capa_1" xmlns="http://www.w3.org/2000/svg" xmlns:xlink="http://www.w3.org/1999/xlink" x="0px" y="0px"
	 viewBox="0 0 64 64" style="enable-background:new 0 0 64 64;" xml:space="preserve">
<style type="text/css">
	.st0{fill:url(#SVGID_1_);}
	.st1{fill:#FFFFFF;}
	.st2{display:none;}
</style>
<g id="guidlines">
</g>
<g id="FB">
</g>
<g id="ig">
	
		<radialGradient id="SVGID_1_" cx="-158.7695" cy="-171.3717" r="76.3885" fx="-161.491" fy="-172.7762" gradientTransform="matrix(0.6381 -0.2877 -0.233 -0.5169 78.5135 -87.9864)" gradientUnits="userSpaceOnUse">
		<stop  offset="0" style="stop-color:#F9ED32"/>
		<stop  offset="0.2555" style="stop-color:#F59F4F"/>
		<stop  offset="0.6535" style="stop-color:#EE2A7B"/>
		<stop  offset="0.6848" style="stop-color:#E32A81"/>
		<stop  offset="0.7394" style="stop-color:#C72A91"/>
		<stop  offset="0.8107" style="stop-color:#982AAB"/>
		<stop  offset="0.896" style="stop-color:#582ACE"/>
		<stop  offset="0.9922" style="stop-color:#072AFB"/>
		<stop  offset="1" style="stop-color:#002AFF"/>
	</radialGradient>
	<path class="st0" d="M42,46H21.4c-3.8,0-6.9-3.1-6.9-6.9V18.5c0-3.8,3.1-6.9,6.9-6.9H42c3.8,0,6.9,3.1,6.9,6.9v20.6
		C48.9,42.9,45.8,46,42,46z"/>
	<g>
		<path class="st1" d="M39.2,47.3H24.8c-6.4,0-11.6-5.1-11.6-11.4V21.8c0-6.3,5.2-11.4,11.6-11.4h14.3c6.4,0,11.6,5.1,11.6,11.4
			v14.1C50.8,42.2,45.6,47.3,39.2,47.3z M24.8,12.1c-5.5,0-9.8,4.3-9.8,9.7v14.1c0,5.4,4.4,9.7,9.8,9.7h14.3c5.5,0,9.8-4.3,9.8-9.7
			V21.8c0-5.4-4.4-9.7-9.8-9.7H24.8z"/>
	</g>
	<g>
		<path class="st1" d="M31.7,37.8c-5,0-9-4-9-9s4-9,9-9s9,4,9,9S36.6,37.8,31.7,37.8z M31.7,21.4c-4.1,0-7.4,3.3-7.4,7.4
			s3.3,7.4,7.4,7.4s7.4-3.3,7.4-7.4S35.7,21.4,31.7,21.4z"/>
	</g>
	<g>
		<path class="st1" d="M41.5,21.4c-1.4,0-2.5-1.1-2.5-2.5c0-1.4,1.1-2.5,2.5-2.5s2.5,1.1,2.5,2.5C43.9,20.4,42.9,21.4,41.5,21.4z
			 M41.5,18.2c-0.5,0-0.8,0.3-0.8,0.8s0.3,0.8,0.8,0.8s0.8-0.3,0.8-0.8S42,18.2,41.5,18.2z"/>
	</g>
</g>
<g id="yt">
</g>
<g id="twitter" class="st2">
</g>
<g id="snapchat" class="st2">
</g>
<g id="WA" class="st2">
</g>
<g id="Pinterrest" class="st2">
</g>
<g id="Layer_9" class="st2">
</g>
<g id="Layer_10" class="st2">
</g>
<g id="Layer_11" class="st2">
</g>
<g id="Layer_12" class="st2">
</g>
<g id="Layer_13" class="st2">
</g>
<g id="Layer_14" class="st2">
</g>
<g id="Layer_15" class="st2">
</g>
<g id="Layer_16" class="st2">
</g>
<g id="Layer_17" class="st2">
</g>
</svg>
